<svg width="141" height="24" viewBox="0 0 141 24" fill="none" xmlns="http://www.w3.org/2000/svg">
<path fill-rule="evenodd" clip-rule="evenodd" d="M0 7.01731C0 5.3509 1.3509 4 3.01731 4H20.9827C22.6491 4 24 5.3509 24 7.01731C24 8.68373 22.6491 10.0346 20.9827 10.0346H15.9654C14.8799 10.0346 14 10.9146 14 12C14 13.0854 14.8799 13.9654 15.9654 13.9654H20.9827C22.6491 13.9654 24 15.3163 24 16.9827C24 18.6491 22.6491 20 20.9827 20H3.01731C1.3509 20 0 18.6491 0 16.9827C0 15.3163 1.3509 13.9654 3.01731 13.9654H7.03462C8.12007 13.9654 9 13.0854 9 12C9 10.9146 8.12007 10.0346 7.03462 10.0346H3.01731C1.3509 10.0346 0 8.68373 0 7.01731Z" fill="#FBFBFB"/>
<path d="M39.0361 20.2256C38.2985 20.2256 37.6217 20.0645 37.0059 19.7422C36.3971 19.4199 35.903 18.9294 35.5234 18.2705H35.502V20H33.2783V3.99414H35.5449V10.2998H35.5664C35.9316 9.6696 36.4186 9.20052 37.0273 8.89258C37.6361 8.58464 38.3092 8.43066 39.0469 8.43066C40.0208 8.43066 40.8766 8.68132 41.6143 9.18262C42.3519 9.67676 42.9248 10.3678 43.333 11.2559C43.7484 12.1367 43.9561 13.1608 43.9561 14.3281C43.9561 15.4954 43.752 16.5231 43.3438 17.4111C42.9355 18.292 42.3626 18.9831 41.625 19.4844C40.8874 19.9785 40.0244 20.2256 39.0361 20.2256ZM38.5742 18.2705C39.4909 18.2705 40.2321 17.9339 40.7979 17.2607C41.3708 16.5876 41.6572 15.61 41.6572 14.3281C41.6572 13.0462 41.3708 12.0687 40.7979 11.3955C40.2321 10.7152 39.4909 10.375 38.5742 10.375C37.6074 10.375 36.834 10.7367 36.2539 11.46C35.681 12.1761 35.3945 13.1322 35.3945 14.3281C35.3945 15.5169 35.681 16.473 36.2539 17.1963C36.834 17.9124 37.6074 18.2705 38.5742 18.2705ZM50.5788 20.2578C49.4545 20.2578 48.4877 20.0036 47.6784 19.4951C46.8764 18.9867 46.2569 18.2884 45.82 17.4004C45.3904 16.5052 45.1755 15.4883 45.1755 14.3496C45.1755 13.1966 45.4011 12.1725 45.8523 11.2773C46.3034 10.3822 46.9265 9.68034 47.7214 9.17188C48.5163 8.65625 49.4294 8.39844 50.4607 8.39844C51.5349 8.39844 52.4659 8.64909 53.2536 9.15039C54.0486 9.65169 54.6644 10.3499 55.1013 11.2451C55.5381 12.1331 55.7566 13.1608 55.7566 14.3281V14.9404H47.4099C47.4529 15.9645 47.7465 16.7917 48.2907 17.4219C48.8422 18.0521 49.6156 18.3672 50.6111 18.3672C51.3558 18.3672 51.9682 18.1989 52.448 17.8623C52.9278 17.5257 53.2465 17.0889 53.404 16.5518H55.5847C55.4486 17.2822 55.1443 17.9268 54.6716 18.4854C54.2061 19.0439 53.6189 19.4808 52.9099 19.7959C52.2081 20.1038 51.431 20.2578 50.5788 20.2578ZM47.4314 13.2217H53.5437C53.4506 12.3193 53.1319 11.6068 52.5876 11.084C52.0433 10.554 51.3415 10.2891 50.4821 10.2891C49.6228 10.2891 48.921 10.554 48.3767 11.084C47.8396 11.6068 47.5245 12.3193 47.4314 13.2217ZM59.769 13.4688V20H57.5024V8.65625H59.726V10.3643C60.4995 9.0752 61.6417 8.43066 63.1528 8.43066C63.9334 8.43066 64.6316 8.60254 65.2475 8.94629C65.8705 9.28288 66.3611 9.78418 66.7192 10.4502C67.0773 11.1162 67.2563 11.9434 67.2563 12.9316V20H64.9897V13.2109C64.9897 12.3014 64.7713 11.6175 64.3344 11.1592C63.8976 10.6937 63.2888 10.4609 62.5082 10.4609C61.7348 10.4609 61.0831 10.7008 60.5532 11.1807C60.0304 11.6533 59.769 12.416 59.769 13.4688ZM74.4484 20.2578C73.367 20.2578 72.4181 20.0072 71.6017 19.5059C70.7925 19.0046 70.1623 18.3099 69.7111 17.4219C69.2599 16.5267 69.0343 15.5026 69.0343 14.3496C69.0343 13.1823 69.2599 12.151 69.7111 11.2559C70.1694 10.3607 70.8032 9.66243 71.6125 9.16113C72.4217 8.65267 73.367 8.39844 74.4484 8.39844C75.3507 8.39844 76.1564 8.57747 76.8654 8.93555C77.5815 9.28646 78.1616 9.77344 78.6056 10.3965C79.0496 11.0195 79.3182 11.7321 79.4113 12.5342H77.1554C77.0408 11.8968 76.7544 11.374 76.2961 10.9658C75.8377 10.5576 75.2254 10.3535 74.4591 10.3535C73.478 10.3535 72.7117 10.7152 72.1603 11.4385C71.6089 12.1618 71.3332 13.1322 71.3332 14.3496C71.3332 15.5527 71.6089 16.5124 72.1603 17.2285C72.7117 17.9447 73.478 18.3027 74.4591 18.3027C75.2397 18.3027 75.8413 18.1058 76.2638 17.7119C76.6864 17.3109 76.9728 16.7773 77.1232 16.1113H79.4113C79.3254 16.8991 79.0604 17.6081 78.6164 18.2383C78.1724 18.8613 77.5923 19.3555 76.8761 19.7207C76.16 20.0788 75.3507 20.2578 74.4484 20.2578ZM83.3915 13.4688V20H81.1249V3.99414H83.3915V10.2891C84.1721 9.05013 85.3 8.43066 86.7753 8.43066C87.5559 8.43066 88.2541 8.60254 88.87 8.94629C89.493 9.28288 89.9836 9.78418 90.3417 10.4502C90.6998 11.1162 90.8788 11.9434 90.8788 12.9316V20H88.6122V13.2109C88.6122 12.3014 88.3938 11.6175 87.9569 11.1592C87.5201 10.6937 86.9113 10.4609 86.1307 10.4609C85.3573 10.4609 84.7056 10.7008 84.1757 11.1807C83.6529 11.6533 83.3915 12.416 83.3915 13.4688ZM93.2154 20V8.65625H95.4176V10.5576C95.7685 9.85579 96.2447 9.32585 96.8463 8.96777C97.4479 8.6097 98.0995 8.43066 98.8014 8.43066C99.5748 8.43066 100.252 8.6276 100.832 9.02148C101.419 9.41536 101.831 9.91667 102.067 10.5254C102.375 9.90951 102.84 9.4082 103.463 9.02148C104.094 8.6276 104.828 8.43066 105.666 8.43066C106.367 8.43066 107.005 8.58464 107.578 8.89258C108.151 9.20052 108.605 9.65885 108.942 10.2676C109.279 10.8691 109.447 11.6247 109.447 12.5342V20H107.17V12.7275C107.17 11.9183 106.944 11.3311 106.493 10.9658C106.042 10.6006 105.508 10.418 104.892 10.418C104.133 10.418 103.535 10.6543 103.098 11.127C102.661 11.5924 102.443 12.1868 102.443 12.9102V20H100.209V12.5771C100.209 11.9255 99.9973 11.4027 99.5748 11.0088C99.1594 10.6149 98.6295 10.418 97.985 10.418C97.3261 10.418 96.7424 10.6507 96.234 11.1162C95.7327 11.5817 95.482 12.262 95.482 13.1572V20H93.2154ZM115.253 20.1826C114.122 20.1826 113.184 19.8962 112.439 19.3232C111.694 18.7432 111.322 17.8874 111.322 16.7559C111.322 15.8965 111.533 15.2376 111.955 14.7793C112.385 14.3138 112.94 13.9808 113.62 13.7803C114.308 13.5798 115.035 13.4329 115.801 13.3398C116.51 13.2539 117.072 13.1823 117.488 13.125C117.903 13.0677 118.197 12.9818 118.368 12.8672C118.548 12.7526 118.637 12.5557 118.637 12.2764V12.1797C118.637 11.6283 118.437 11.1771 118.035 10.8262C117.634 10.4681 117.072 10.2891 116.349 10.2891C115.626 10.2891 115.035 10.4645 114.576 10.8154C114.118 11.1592 113.868 11.5924 113.825 12.1152H111.601C111.651 11.0339 112.106 10.1494 112.965 9.46191C113.825 8.77441 114.963 8.43066 116.381 8.43066C117.778 8.43066 118.877 8.77441 119.679 9.46191C120.481 10.1494 120.882 11.0697 120.882 12.2227V20H118.648V18.3887H118.605C118.368 18.847 117.993 19.2624 117.477 19.6348C116.968 20 116.227 20.1826 115.253 20.1826ZM115.715 18.3564C116.718 18.3564 117.455 18.0986 117.928 17.583C118.408 17.0602 118.648 16.4515 118.648 15.7568V14.4248C118.497 14.5465 118.157 14.6576 117.627 14.7578C117.097 14.8509 116.532 14.9404 115.93 15.0264C115.307 15.1195 114.759 15.2949 114.286 15.5527C113.814 15.8105 113.577 16.2259 113.577 16.7988C113.577 17.2858 113.767 17.6689 114.147 17.9482C114.534 18.2204 115.056 18.3564 115.715 18.3564ZM123.219 20V8.65625H125.389V10.4932H125.432C125.639 9.87012 125.965 9.38672 126.409 9.04297C126.86 8.69206 127.448 8.5166 128.171 8.5166C128.343 8.5166 128.5 8.52376 128.644 8.53809C128.787 8.55241 128.905 8.56315 128.998 8.57031V10.6865C128.912 10.665 128.758 10.6436 128.536 10.6221C128.314 10.5934 128.071 10.5791 127.806 10.5791C127.168 10.5791 126.62 10.8011 126.162 11.2451C125.711 11.6891 125.485 12.373 125.485 13.2969V20H123.219ZM130.325 20V3.99414H132.592V13.501H132.624L137.458 8.65625H140.272L135.47 13.5332L140.594 20H137.812L133.741 14.8975L132.592 16.0146V20H130.325Z" fill="#FBFBFB"/>
</svg>
