<svg width="24" height="24" viewBox="0 0 24 24" fill="none" xmlns="http://www.w3.org/2000/svg">
<path fill-rule="evenodd" clip-rule="evenodd" d="M5.58579 3.50009C6.36683 2.71905 7.63316 2.71904 8.41421 3.50009L11.7071 6.79299C12.0976 7.18351 12.0976 7.81668 11.7071 8.2072C11.3166 8.59772 10.6834 8.59772 10.2929 8.2072L8 5.91431V20.0001C8 20.5524 7.55228 21.0001 7 21.0001C6.44772 21.0001 6 20.5524 6 20.0001V5.91431L3.70711 8.2072C3.31658 8.59772 2.68342 8.59772 2.29289 8.2072C1.90237 7.81668 1.90237 7.18351 2.29289 6.79299L5.58579 3.50009L6.29289 4.2072L5.58579 3.50009ZM17 3.00009C17.5523 3.00009 18 3.44781 18 4.00009V18.0859L20.2929 15.793C20.6834 15.4025 21.3166 15.4025 21.7071 15.793C22.0976 16.1835 22.0976 16.8167 21.7071 17.2072L18.4142 20.5001C17.6332 21.2811 16.3668 21.2811 15.5858 20.5001L12.2929 17.2072C11.9024 16.8167 11.9024 16.1835 12.2929 15.793C12.6834 15.4025 13.3166 15.4025 13.7071 15.793L16 18.0859V4.00009C16 3.44781 16.4477 3.00009 17 3.00009Z" fill="#8E8E93"/>
</svg>

