<svg width="24" height="16" viewBox="0 0 24 16" fill="none" xmlns="http://www.w3.org/2000/svg">
<path fill-rule="evenodd" clip-rule="evenodd" d="M0 3.01731C0 1.3509 1.3509 0 3.01731 0H20.9827C22.6491 0 24 1.3509 24 3.01731C24 4.68373 22.6491 6.03462 20.9827 6.03462H15.9654C14.8799 6.03462 14 6.91455 14 8C14 9.08545 14.8799 9.96538 15.9654 9.96538H20.9827C22.6491 9.96538 24 11.3163 24 12.9827C24 14.6491 22.6491 16 20.9827 16H3.01731C1.3509 16 0 14.6491 0 12.9827C0 11.3163 1.3509 9.96538 3.01731 9.96538H7.03462C8.12007 9.96538 9 9.08545 9 8C9 6.91455 8.12007 6.03462 7.03462 6.03462H3.01731C1.3509 6.03462 0 4.68373 0 3.01731Z" fill="#FBFBFB"/>
</svg>
