<svg width="24" height="24" viewBox="0 0 24 24" fill="none" xmlns="http://www.w3.org/2000/svg">
<g id="Type=icon/sort,state=default">
<path id="icon" fill-rule="evenodd" clip-rule="evenodd" d="M7.88634 7.46967C8.17923 7.17678 8.6541 7.17678 8.947 7.46967L11.6137 10.1363C11.9066 10.4292 11.9066 10.9041 11.6137 11.197C11.3208 11.4899 10.8459 11.4899 10.553 11.197L9.16667 9.81066V16.6667C9.16667 17.0809 8.83088 17.4167 8.41667 17.4167C8.00245 17.4167 7.66667 17.0809 7.66667 16.6667V9.81066L6.28033 11.197C5.98744 11.4899 5.51256 11.4899 5.21967 11.197C4.92678 10.9041 4.92678 10.4292 5.21967 10.1363L7.88634 7.46967ZM16.4167 7.25C16.8309 7.25 17.1667 7.58579 17.1667 8V14.856L18.553 13.4697C18.8459 13.1768 19.3208 13.1768 19.6137 13.4697C19.9066 13.7626 19.9066 14.2374 19.6137 14.5303L16.947 17.197C16.6541 17.4899 16.1792 17.4899 15.8863 17.197L13.2197 14.5303C12.9268 14.2374 12.9268 13.7626 13.2197 13.4697C13.5126 13.1768 13.9874 13.1768 14.2803 13.4697L15.6667 14.856V8C15.6667 7.58579 16.0025 7.25 16.4167 7.25Z" fill="#8E8E93"/>
</g>
</svg>
