<svg width="40" height="40" viewBox="0 0 40 40" fill="none" xmlns="http://www.w3.org/2000/svg">
<path fill-rule="evenodd" clip-rule="evenodd" d="M32.4291 28.3383C34.0357 25.9517 34.9974 23.095 34.9974 20C34.9974 11.715 28.2824 5 19.9974 5C11.7124 5 4.99739 11.715 4.99739 20C4.99739 28.285 11.7124 35 19.9974 35C22.5407 35 24.9307 34.355 27.0307 33.2383C29.2741 34.435 31.8191 35.14 34.5374 35.14C35.2607 35.14 35.9657 35.075 36.6641 34.9833C34.7091 33.205 33.2391 30.9217 32.4291 28.3383Z" fill="#FBFBFB" stroke="#FBFBFB" stroke-width="1.57143" stroke-linecap="round" stroke-linejoin="round"/>
<path d="M12 20C12 20 13.1779 27 20.589 27C28 27 29.0002 20 29.0002 20" stroke="#5E5CE6" stroke-width="2" stroke-linecap="round"/>
</svg>
